<svg xmlns="http://www.w3.org/2000/svg" width="36.921" height="52.305" viewBox="0 0 36.921 52.305">
  <g id="icon-googlemap-marker" transform="translate(-1143 -279.695)">
    <g id="Group_1353" data-name="Group 1353" transform="translate(1143 279.695)">
      <g id="Group_218" data-name="Group 218">
        <path id="Path_199" data-name="Path 199" d="M36.921,18.461A18.461,18.461,0,1,0,0,18.461C0,32.306,18.461,52.3,18.461,52.3S36.921,32.306,36.921,18.461Z"/>
      </g>
    </g>
    <g id="Group_1354" data-name="Group 1354" transform="translate(-12932.697 441.622)">
      <g id="Group_1311" data-name="Group 1311" transform="translate(14084.76 -152.339)">
        <path id="Path_1484" data-name="Path 1484" d="M5.82,6.19a3.321,3.321,0,0,1,2.97,1.658l-1.1.579a2.2,2.2,0,0,0-1.87-1.08,2.532,2.532,0,0,0-2.557,2.68,2.548,2.548,0,0,0,2.557,2.68,2.221,2.221,0,0,0,1.87-1.08l1.111.555a3.391,3.391,0,0,1-2.981,1.682,3.8,3.8,0,0,1-3.429-1.932l2.65,8.13,14.1-4.6L17.247,9.653c.012.123.015.247.015.374a3.688,3.688,0,0,1-3.795,3.837,3.682,3.682,0,0,1-3.795-3.837A3.682,3.682,0,0,1,13.468,6.19a3.676,3.676,0,0,1,3.2,1.685L14.1,0,0,4.6l1.978,6.07a4.347,4.347,0,0,1-.05-.64A3.736,3.736,0,0,1,5.82,6.19Z" fill="#fff"/>
        <path id="Path_1485" data-name="Path 1485" d="M31.017,19.05a2.457,2.457,0,0,0-2.457,2.68,2.466,2.466,0,1,0,4.913,0A2.459,2.459,0,0,0,31.017,19.05Z" transform="translate(-17.545 -11.703)" fill="#fff"/>
      </g>
    </g>
  </g>
</svg>
