<svg id="logo-instagram" xmlns="http://www.w3.org/2000/svg" width="18.349" height="18.349" viewBox="0 0 18.349 18.349">
  <path id="Path_1470" data-name="Path 1470" d="M9.175,1.653c2.45,0,2.74.009,3.707.053a3.931,3.931,0,0,1,2.759,1,3.931,3.931,0,0,1,1,2.759c.044.967.053,1.257.053,3.707s-.009,2.74-.053,3.707a3.931,3.931,0,0,1-1,2.759,3.931,3.931,0,0,1-2.759,1c-.967.044-1.257.053-3.707.053s-2.74-.009-3.707-.053a3.931,3.931,0,0,1-2.759-1,3.931,3.931,0,0,1-1-2.759c-.044-.967-.053-1.257-.053-3.707s.009-2.74.053-3.707a3.931,3.931,0,0,1,1-2.759,3.931,3.931,0,0,1,2.759-1c.967-.044,1.257-.053,3.707-.053M9.175,0c-2.491,0-2.8.01-3.783.055A5.486,5.486,0,0,0,1.54,1.54,5.484,5.484,0,0,0,.055,5.392C.01,6.371,0,6.683,0,9.175s.01,2.8.055,3.783A5.486,5.486,0,0,0,1.54,16.81a5.484,5.484,0,0,0,3.852,1.485c.979.045,1.291.055,3.783.055s2.8-.01,3.783-.055A5.486,5.486,0,0,0,16.81,16.81a5.484,5.484,0,0,0,1.485-3.852c.045-.979.055-1.291.055-3.783s-.01-2.8-.055-3.783A5.486,5.486,0,0,0,16.81,1.54,5.484,5.484,0,0,0,12.957.055C11.979.01,11.666,0,9.175,0Z" fill="#111"/>
  <path id="Path_1471" data-name="Path 1471" d="M12.5,7.784A4.711,4.711,0,1,0,17.206,12.5,4.711,4.711,0,0,0,12.5,7.784Zm0,7.769A3.058,3.058,0,1,1,15.553,12.5,3.058,3.058,0,0,1,12.5,15.553Z" transform="translate(-3.321 -3.321)" fill="#111"/>
  <circle id="Ellipse_58" data-name="Ellipse 58" cx="1.101" cy="1.101" r="1.101" transform="translate(12.971 3.176)" fill="#111"/>
</svg>
