<svg id="logo-pinterest" xmlns="http://www.w3.org/2000/svg" width="20.341" height="20.341" viewBox="0 0 20.341 20.341">
  <path id="Path_1472" data-name="Path 1472" d="M10.171,0A10.189,10.189,0,0,0,6.441,19.663a10.929,10.929,0,0,1,0-2.882c.17-.763,1.187-5.085,1.187-5.085a4.818,4.818,0,0,1-.254-1.526c0-1.441.848-2.458,1.865-2.458A1.293,1.293,0,0,1,10.51,9.154a24.61,24.61,0,0,1-.848,3.39,1.494,1.494,0,0,0,1.526,1.865c1.78,0,3.221-1.865,3.221-4.662a4.028,4.028,0,0,0-4.238-4.153A4.414,4.414,0,0,0,5.594,10a3.892,3.892,0,0,0,.763,2.288.311.311,0,0,1,.085.254,10.241,10.241,0,0,0-.254,1.187c-.085.17-.17.254-.339.17-1.271-.593-2.034-2.458-2.034-3.9,0-3.221,2.373-6.187,6.7-6.187a5.964,5.964,0,0,1,6.272,5.848c0,3.475-2.2,6.357-5.255,6.357a2.734,2.734,0,0,1-2.373-1.187s-.509,1.949-.593,2.458a12.58,12.58,0,0,1-1.271,2.627,10.15,10.15,0,0,0,13.052-9.747A10.2,10.2,0,0,0,10.171,0Z" fill="#111"/>
</svg>
