<svg id="Group_1366" data-name="Group 1366" xmlns="http://www.w3.org/2000/svg" width="39.941" height="41.864" viewBox="0 0 39.941 41.864">
  <path id="Path_1484" data-name="Path 1484" d="M12.144,12.917a6.931,6.931,0,0,1,6.2,3.461l-2.3,1.207a4.588,4.588,0,0,0-3.9-2.253A5.284,5.284,0,0,0,6.8,20.924a5.317,5.317,0,0,0,5.336,5.593,4.634,4.634,0,0,0,3.9-2.253l2.318,1.159a7.075,7.075,0,0,1-6.221,3.509A7.936,7.936,0,0,1,4.982,24.9L10.51,41.864l29.431-9.593L35.989,20.143c.024.258.032.515.032.781A7.7,7.7,0,0,1,28.1,28.932a7.683,7.683,0,0,1-7.919-8.007A7.683,7.683,0,0,1,28.1,12.917a7.67,7.67,0,0,1,6.672,3.517L29.431,0,0,9.593,4.128,22.26a9.071,9.071,0,0,1-.1-1.336A7.8,7.8,0,0,1,12.144,12.917Z"/>
  <path id="Path_1485" data-name="Path 1485" d="M33.686,19.05c-3.131,0-5.126,2.39-5.126,5.593,0,3.179,2,5.593,5.126,5.593,3.114,0,5.126-2.414,5.126-5.593C38.821,21.44,36.8,19.05,33.686,19.05Z" transform="translate(-5.576 -3.719)"/>
</svg>
